<svg id="visual" viewBox="0 0 1920 1080" width="1920" height="1080" xmlns="http://www.w3.org/2000/svg" xmlns:xlink="http://www.w3.org/1999/xlink" version="1.1"><rect x="0" y="0" width="1920" height="1080" fill="#fff"></rect><defs><linearGradient id="grad1_0" x1="43.8%" y1="0%" x2="100%" y2="100%"><stop offset="14.444444444444446%" stop-color="#009473" stop-opacity="1"></stop><stop offset="85.55555555555554%" stop-color="#009473" stop-opacity="1"></stop></linearGradient></defs><defs><linearGradient id="grad1_1" x1="43.8%" y1="0%" x2="100%" y2="100%"><stop offset="14.444444444444446%" stop-color="#009473" stop-opacity="1"></stop><stop offset="85.55555555555554%" stop-color="#5eaf94" stop-opacity="1"></stop></linearGradient></defs><defs><linearGradient id="grad1_2" x1="43.8%" y1="0%" x2="100%" y2="100%"><stop offset="14.444444444444446%" stop-color="#96cab7" stop-opacity="1"></stop><stop offset="85.55555555555554%" stop-color="#5eaf94" stop-opacity="1"></stop></linearGradient></defs><defs><linearGradient id="grad1_3" x1="43.8%" y1="0%" x2="100%" y2="100%"><stop offset="14.444444444444446%" stop-color="#96cab7" stop-opacity="1"></stop><stop offset="85.55555555555554%" stop-color="#cae4da" stop-opacity="1"></stop></linearGradient></defs><defs><linearGradient id="grad1_4" x1="43.8%" y1="0%" x2="100%" y2="100%"><stop offset="14.444444444444446%" stop-color="#ffffff" stop-opacity="1"></stop><stop offset="85.55555555555554%" stop-color="#cae4da" stop-opacity="1"></stop></linearGradient></defs><defs><linearGradient id="grad2_0" x1="0%" y1="0%" x2="56.3%" y2="100%"><stop offset="14.444444444444446%" stop-color="#009473" stop-opacity="1"></stop><stop offset="85.55555555555554%" stop-color="#009473" stop-opacity="1"></stop></linearGradient></defs><defs><linearGradient id="grad2_1" x1="0%" y1="0%" x2="56.3%" y2="100%"><stop offset="14.444444444444446%" stop-color="#5eaf94" stop-opacity="1"></stop><stop offset="85.55555555555554%" stop-color="#009473" stop-opacity="1"></stop></linearGradient></defs><defs><linearGradient id="grad2_2" x1="0%" y1="0%" x2="56.3%" y2="100%"><stop offset="14.444444444444446%" stop-color="#5eaf94" stop-opacity="1"></stop><stop offset="85.55555555555554%" stop-color="#96cab7" stop-opacity="1"></stop></linearGradient></defs><defs><linearGradient id="grad2_3" x1="0%" y1="0%" x2="56.3%" y2="100%"><stop offset="14.444444444444446%" stop-color="#cae4da" stop-opacity="1"></stop><stop offset="85.55555555555554%" stop-color="#96cab7" stop-opacity="1"></stop></linearGradient></defs><defs><linearGradient id="grad2_4" x1="0%" y1="0%" x2="56.3%" y2="100%"><stop offset="14.444444444444446%" stop-color="#cae4da" stop-opacity="1"></stop><stop offset="85.55555555555554%" stop-color="#ffffff" stop-opacity="1"></stop></linearGradient></defs><g transform="translate(1920, 0)"><path d="M0 1080C-108.7 987 -217.3 894 -354.4 855.5C-491.4 817 -656.8 833 -763.7 763.7C-870.5 694.4 -918.8 539.9 -961.8 398.4C-1004.7 256.9 -1042.4 128.4 -1080 0L0 0Z" fill="#e5f2ec"></path><path d="M0 864C-86.9 789.6 -173.9 715.2 -283.5 684.4C-393.1 653.6 -525.5 666.4 -610.9 610.9C-696.4 555.5 -735 431.9 -769.4 318.7C-803.8 205.5 -833.9 102.8 -864 0L0 0Z" fill="#b0d7c8"></path><path d="M0 648C-65.2 592.2 -130.4 536.4 -212.6 513.3C-294.8 490.2 -394.1 499.8 -458.2 458.2C-522.3 416.6 -551.3 323.9 -577.1 239C-602.8 154.1 -625.4 77.1 -648 0L0 0Z" fill="#7bbca5"></path><path d="M0 432C-43.5 394.8 -86.9 357.6 -141.7 342.2C-196.6 326.8 -262.7 333.2 -305.5 305.5C-348.2 277.8 -367.5 215.9 -384.7 159.3C-401.9 102.8 -416.9 51.4 -432 0L0 0Z" fill="#3da183"></path><path d="M0 216C-21.7 197.4 -43.5 178.8 -70.9 171.1C-98.3 163.4 -131.4 166.6 -152.7 152.7C-174.1 138.9 -183.8 108 -192.4 79.7C-200.9 51.4 -208.5 25.7 -216 0L0 0Z" fill="#009473"></path></g><g transform="translate(0, 1080)"><path d="M0 -1080C125.1 -1025 250.3 -970 383.4 -925.7C516.6 -881.5 657.9 -847.9 763.7 -763.7C869.5 -679.4 939.9 -544.4 986.7 -408.7C1033.5 -273 1056.8 -136.5 1080 0L0 0Z" fill="#e5f2ec"></path><path d="M0 -864C100.1 -820 200.2 -776 306.8 -740.6C413.3 -705.2 526.3 -678.3 610.9 -610.9C695.6 -543.5 751.9 -435.6 789.4 -327C826.8 -218.4 845.4 -109.2 864 0L0 0Z" fill="#b0d7c8"></path><path d="M0 -648C75.1 -615 150.2 -582 230.1 -555.4C310 -528.9 394.7 -508.8 458.2 -458.2C521.7 -407.7 563.9 -326.7 592 -245.2C620.1 -163.8 634.1 -81.9 648 0L0 0Z" fill="#7bbca5"></path><path d="M0 -432C50.1 -410 100.1 -388 153.4 -370.3C206.7 -352.6 263.1 -339.2 305.5 -305.5C347.8 -271.8 376 -217.8 394.7 -163.5C413.4 -109.2 422.7 -54.6 432 0L0 0Z" fill="#3da183"></path><path d="M0 -216C25 -205 50.1 -194 76.7 -185.1C103.3 -176.3 131.6 -169.6 152.7 -152.7C173.9 -135.9 188 -108.9 197.3 -81.7C206.7 -54.6 211.4 -27.3 216 0L0 0Z" fill="#009473"></path></g></svg>