<svg id="visual" viewBox="0 0 2000 1300" width="2000" height="1300" xmlns="http://www.w3.org/2000/svg" xmlns:xlink="http://www.w3.org/1999/xlink" version="1.1"><rect x="0" y="0" width="2000" height="1300" fill="#fff"></rect><defs><linearGradient id="grad1_0" x1="35%" y1="0%" x2="100%" y2="100%"><stop offset="19.230769230769226%" stop-color="#009473" stop-opacity="1"></stop><stop offset="80.76923076923077%" stop-color="#009473" stop-opacity="1"></stop></linearGradient></defs><defs><linearGradient id="grad1_1" x1="35%" y1="0%" x2="100%" y2="100%"><stop offset="19.230769230769226%" stop-color="#009473" stop-opacity="1"></stop><stop offset="80.76923076923077%" stop-color="#49a689" stop-opacity="1"></stop></linearGradient></defs><defs><linearGradient id="grad1_2" x1="35%" y1="0%" x2="100%" y2="100%"><stop offset="19.230769230769226%" stop-color="#71b89f" stop-opacity="1"></stop><stop offset="80.76923076923077%" stop-color="#49a689" stop-opacity="1"></stop></linearGradient></defs><defs><linearGradient id="grad1_3" x1="35%" y1="0%" x2="100%" y2="100%"><stop offset="19.230769230769226%" stop-color="#71b89f" stop-opacity="1"></stop><stop offset="80.76923076923077%" stop-color="#96cab7" stop-opacity="1"></stop></linearGradient></defs><defs><linearGradient id="grad1_4" x1="35%" y1="0%" x2="100%" y2="100%"><stop offset="19.230769230769226%" stop-color="#b9dbce" stop-opacity="1"></stop><stop offset="80.76923076923077%" stop-color="#96cab7" stop-opacity="1"></stop></linearGradient></defs><defs><linearGradient id="grad1_5" x1="35%" y1="0%" x2="100%" y2="100%"><stop offset="19.230769230769226%" stop-color="#b9dbce" stop-opacity="1"></stop><stop offset="80.76923076923077%" stop-color="#dcede6" stop-opacity="1"></stop></linearGradient></defs><defs><linearGradient id="grad1_6" x1="35%" y1="0%" x2="100%" y2="100%"><stop offset="19.230769230769226%" stop-color="#ffffff" stop-opacity="1"></stop><stop offset="80.76923076923077%" stop-color="#dcede6" stop-opacity="1"></stop></linearGradient></defs><defs><linearGradient id="grad2_0" x1="0%" y1="0%" x2="65%" y2="100%"><stop offset="19.230769230769226%" stop-color="#009473" stop-opacity="1"></stop><stop offset="80.76923076923077%" stop-color="#009473" stop-opacity="1"></stop></linearGradient></defs><defs><linearGradient id="grad2_1" x1="0%" y1="0%" x2="65%" y2="100%"><stop offset="19.230769230769226%" stop-color="#49a689" stop-opacity="1"></stop><stop offset="80.76923076923077%" stop-color="#009473" stop-opacity="1"></stop></linearGradient></defs><defs><linearGradient id="grad2_2" x1="0%" y1="0%" x2="65%" y2="100%"><stop offset="19.230769230769226%" stop-color="#49a689" stop-opacity="1"></stop><stop offset="80.76923076923077%" stop-color="#71b89f" stop-opacity="1"></stop></linearGradient></defs><defs><linearGradient id="grad2_3" x1="0%" y1="0%" x2="65%" y2="100%"><stop offset="19.230769230769226%" stop-color="#96cab7" stop-opacity="1"></stop><stop offset="80.76923076923077%" stop-color="#71b89f" stop-opacity="1"></stop></linearGradient></defs><defs><linearGradient id="grad2_4" x1="0%" y1="0%" x2="65%" y2="100%"><stop offset="19.230769230769226%" stop-color="#96cab7" stop-opacity="1"></stop><stop offset="80.76923076923077%" stop-color="#b9dbce" stop-opacity="1"></stop></linearGradient></defs><defs><linearGradient id="grad2_5" x1="0%" y1="0%" x2="65%" y2="100%"><stop offset="19.230769230769226%" stop-color="#dcede6" stop-opacity="1"></stop><stop offset="80.76923076923077%" stop-color="#b9dbce" stop-opacity="1"></stop></linearGradient></defs><defs><linearGradient id="grad2_6" x1="0%" y1="0%" x2="65%" y2="100%"><stop offset="19.230769230769226%" stop-color="#dcede6" stop-opacity="1"></stop><stop offset="80.76923076923077%" stop-color="#ffffff" stop-opacity="1"></stop></linearGradient></defs><g transform="translate(2000, 0)"><path d="M0 1073.4C-141.4 1008.6 -282.8 943.9 -345.6 834.3C-408.3 724.7 -392.3 570.3 -509.1 509.1C-625.9 448 -875.5 480.1 -991.7 410.8C-1107.9 341.5 -1090.7 170.7 -1073.4 0L0 0Z" fill="#edf6f3"></path><path d="M0 920.1C-121.2 864.5 -242.4 809 -296.2 715.1C-350 621.1 -336.3 488.8 -436.4 436.4C-536.5 384 -750.5 411.5 -850 352.1C-949.6 292.7 -934.8 146.3 -920.1 0L0 0Z" fill="#cae4da"></path><path d="M0 766.7C-101 720.5 -202 674.2 -246.8 595.9C-291.6 517.6 -280.2 407.3 -363.7 363.7C-447.1 320 -625.4 342.9 -708.4 293.4C-791.3 243.9 -779 122 -766.7 0L0 0Z" fill="#a7d3c2"></path><path d="M0 613.4C-80.8 576.4 -161.6 539.3 -197.5 476.7C-233.3 414.1 -224.2 325.9 -290.9 290.9C-357.7 256 -500.3 274.3 -566.7 234.7C-633.1 195.1 -623.2 97.6 -613.4 0L0 0Z" fill="#84c1ab"></path><path d="M0 460C-60.6 432.3 -121.2 404.5 -148.1 357.5C-175 310.6 -168.1 244.4 -218.2 218.2C-268.3 192 -375.2 205.8 -425 176C-474.8 146.3 -467.4 73.2 -460 0L0 0Z" fill="#5eaf94"></path><path d="M0 306.7C-40.4 288.2 -80.8 269.7 -98.7 238.4C-116.7 207 -112.1 162.9 -145.5 145.5C-178.8 128 -250.2 137.2 -283.3 117.4C-316.5 97.6 -311.6 48.8 -306.7 0L0 0Z" fill="#309d7e"></path><path d="M0 153.3C-20.2 144.1 -40.4 134.8 -49.4 119.2C-58.3 103.5 -56 81.5 -72.7 72.7C-89.4 64 -125.1 68.6 -141.7 58.7C-158.3 48.8 -155.8 24.4 -153.3 0L0 0Z" fill="#009473"></path></g><g transform="translate(0, 1300)"><path d="M0 -1073.4C140.7 -1064.1 281.4 -1054.7 410.8 -991.7C540.2 -928.7 658.3 -812.1 678.1 -678.1C697.9 -544.2 619.4 -393 668.9 -277.1C718.4 -161.2 895.9 -80.6 1073.4 0L0 0Z" fill="#edf6f3"></path><path d="M0 -920.1C120.6 -912.1 241.2 -904 352.1 -850C463 -796 564.3 -696 581.2 -581.2C598.2 -466.4 530.9 -336.8 573.3 -237.5C615.8 -138.1 767.9 -69.1 920.1 0L0 0Z" fill="#cae4da"></path><path d="M0 -766.7C100.5 -760 201 -753.4 293.4 -708.4C385.8 -663.4 470.2 -580 484.4 -484.4C498.5 -388.7 442.4 -280.7 477.8 -197.9C513.1 -115.1 639.9 -57.6 766.7 0L0 0Z" fill="#a7d3c2"></path><path d="M0 -613.4C80.4 -608 160.8 -602.7 234.7 -566.7C308.7 -530.7 376.2 -464 387.5 -387.5C398.8 -311 353.9 -224.5 382.2 -158.3C410.5 -92.1 511.9 -46 613.4 0L0 0Z" fill="#84c1ab"></path><path d="M0 -460C60.3 -456 120.6 -452 176 -425C231.5 -398 282.1 -348 290.6 -290.6C299.1 -233.2 265.5 -168.4 286.7 -118.7C307.9 -69.1 384 -34.5 460 0L0 0Z" fill="#5eaf94"></path><path d="M0 -306.7C40.2 -304 80.4 -301.3 117.4 -283.3C154.3 -265.3 188.1 -232 193.7 -193.7C199.4 -155.5 177 -112.3 191.1 -79.2C205.3 -46 256 -23 306.7 0L0 0Z" fill="#309d7e"></path><path d="M0 -153.3C20.1 -152 40.2 -150.7 58.7 -141.7C77.2 -132.7 94 -116 96.9 -96.9C99.7 -77.7 88.5 -56.1 95.6 -39.6C102.6 -23 128 -11.5 153.3 0L0 0Z" fill="#009473"></path></g></svg>