<svg id="visual" viewBox="0 0 1920 1080" width="1920" height="1080" xmlns="http://www.w3.org/2000/svg" xmlns:xlink="http://www.w3.org/1999/xlink" version="1.1"><rect width="1920" height="1080" fill="#fff"></rect><g><g transform="translate(1752 232)"><path d="M210.1 -57.2C245.3 40 228.1 165.2 151.3 224.9C74.5 284.6 -61.9 278.8 -153.8 212C-245.6 145.2 -292.9 17.3 -259.8 -77C-226.8 -171.3 -113.4 -232.1 -13 -227.9C87.5 -223.7 174.9 -154.5 210.1 -57.2Z" stroke="#154E2A" fill="none" stroke-width="20"></path></g><g transform="translate(468 270)"><path d="M148.1 -44C170.7 21.2 152.9 103.6 100.1 143.3C47.3 183 -40.6 179.9 -94.8 138.5C-149.1 97.2 -169.7 17.7 -148.3 -45.9C-126.9 -109.6 -63.5 -157.3 -0.3 -157.1C62.8 -157 125.6 -109.1 148.1 -44Z" stroke="#154E2A" fill="none" stroke-width="20"></path></g><g transform="translate(914 1019)"><path d="M162.4 -46.8C184.3 14.6 157.8 97.7 101.2 138.6C44.6 179.5 -42 178.3 -101.5 136C-161 93.6 -193.4 10.1 -172 -50.6C-150.5 -111.4 -75.3 -149.4 -2.5 -148.6C70.3 -147.8 140.5 -108.1 162.4 -46.8Z" stroke="#154E2A" fill="none" stroke-width="20"></path></g><g transform="translate(1660 1011)"><path d="M178.3 -53.2C206.7 29.5 188.6 132.1 125.8 179.1C63.1 226.1 -44.3 217.5 -115.9 164.3C-187.4 111.2 -223 13.6 -197.7 -64.9C-172.5 -143.4 -86.2 -202.7 -5.6 -200.8C74.9 -199 149.9 -136 178.3 -53.2Z" stroke="#154E2A" fill="none" stroke-width="20"></path></g><g transform="translate(3 959)"><path d="M210.9 -69.2C233.2 0 183.5 92 113.7 138.4C44 184.7 -45.6 185.5 -106.6 142.3C-167.6 99 -199.9 11.8 -177.3 -57.8C-154.8 -127.3 -77.4 -179.2 8.5 -182C94.3 -184.7 188.7 -138.3 210.9 -69.2Z" stroke="#154E2A" fill="none" stroke-width="20"></path></g></g></svg>