<svg id="visual" viewBox="0 0 1920 1080" width="1920" height="1080" xmlns="http://www.w3.org/2000/svg" xmlns:xlink="http://www.w3.org/1999/xlink" version="1.1"><rect x="0" y="0" width="1920" height="1080" fill="#fff"></rect><defs><linearGradient id="grad1_0" x1="43.8%" y1="0%" x2="100%" y2="100%"><stop offset="14.444444444444446%" stop-color="#74c69d" stop-opacity="1"></stop><stop offset="85.55555555555554%" stop-color="#74c69d" stop-opacity="1"></stop></linearGradient></defs><defs><linearGradient id="grad1_1" x1="43.8%" y1="0%" x2="100%" y2="100%"><stop offset="14.444444444444446%" stop-color="#74c69d" stop-opacity="1"></stop><stop offset="85.55555555555554%" stop-color="#8dd0ad" stop-opacity="1"></stop></linearGradient></defs><defs><linearGradient id="grad1_2" x1="43.8%" y1="0%" x2="100%" y2="100%"><stop offset="14.444444444444446%" stop-color="#a4d9bd" stop-opacity="1"></stop><stop offset="85.55555555555554%" stop-color="#8dd0ad" stop-opacity="1"></stop></linearGradient></defs><defs><linearGradient id="grad1_3" x1="43.8%" y1="0%" x2="100%" y2="100%"><stop offset="14.444444444444446%" stop-color="#a4d9bd" stop-opacity="1"></stop><stop offset="85.55555555555554%" stop-color="#bbe3cd" stop-opacity="1"></stop></linearGradient></defs><defs><linearGradient id="grad1_4" x1="43.8%" y1="0%" x2="100%" y2="100%"><stop offset="14.444444444444446%" stop-color="#d2ecdd" stop-opacity="1"></stop><stop offset="85.55555555555554%" stop-color="#bbe3cd" stop-opacity="1"></stop></linearGradient></defs><defs><linearGradient id="grad1_5" x1="43.8%" y1="0%" x2="100%" y2="100%"><stop offset="14.444444444444446%" stop-color="#d2ecdd" stop-opacity="1"></stop><stop offset="85.55555555555554%" stop-color="#e8f6ee" stop-opacity="1"></stop></linearGradient></defs><defs><linearGradient id="grad1_6" x1="43.8%" y1="0%" x2="100%" y2="100%"><stop offset="14.444444444444446%" stop-color="#ffffff" stop-opacity="1"></stop><stop offset="85.55555555555554%" stop-color="#e8f6ee" stop-opacity="1"></stop></linearGradient></defs><defs><linearGradient id="grad2_0" x1="0%" y1="0%" x2="56.3%" y2="100%"><stop offset="14.444444444444446%" stop-color="#74c69d" stop-opacity="1"></stop><stop offset="85.55555555555554%" stop-color="#74c69d" stop-opacity="1"></stop></linearGradient></defs><defs><linearGradient id="grad2_1" x1="0%" y1="0%" x2="56.3%" y2="100%"><stop offset="14.444444444444446%" stop-color="#8dd0ad" stop-opacity="1"></stop><stop offset="85.55555555555554%" stop-color="#74c69d" stop-opacity="1"></stop></linearGradient></defs><defs><linearGradient id="grad2_2" x1="0%" y1="0%" x2="56.3%" y2="100%"><stop offset="14.444444444444446%" stop-color="#8dd0ad" stop-opacity="1"></stop><stop offset="85.55555555555554%" stop-color="#a4d9bd" stop-opacity="1"></stop></linearGradient></defs><defs><linearGradient id="grad2_3" x1="0%" y1="0%" x2="56.3%" y2="100%"><stop offset="14.444444444444446%" stop-color="#bbe3cd" stop-opacity="1"></stop><stop offset="85.55555555555554%" stop-color="#a4d9bd" stop-opacity="1"></stop></linearGradient></defs><defs><linearGradient id="grad2_4" x1="0%" y1="0%" x2="56.3%" y2="100%"><stop offset="14.444444444444446%" stop-color="#bbe3cd" stop-opacity="1"></stop><stop offset="85.55555555555554%" stop-color="#d2ecdd" stop-opacity="1"></stop></linearGradient></defs><defs><linearGradient id="grad2_5" x1="0%" y1="0%" x2="56.3%" y2="100%"><stop offset="14.444444444444446%" stop-color="#e8f6ee" stop-opacity="1"></stop><stop offset="85.55555555555554%" stop-color="#d2ecdd" stop-opacity="1"></stop></linearGradient></defs><defs><linearGradient id="grad2_6" x1="0%" y1="0%" x2="56.3%" y2="100%"><stop offset="14.444444444444446%" stop-color="#e8f6ee" stop-opacity="1"></stop><stop offset="85.55555555555554%" stop-color="#ffffff" stop-opacity="1"></stop></linearGradient></defs><g transform="translate(1920, 0)"><path d="M0 972C-106.8 905.6 -213.7 839.1 -330.6 798.2C-447.6 757.4 -574.7 742.1 -676 676C-777.3 609.9 -853 493.1 -898 372C-943.1 250.8 -957.5 125.4 -972 0L0 0Z" fill="#f4faf7"></path><path d="M0 833.1C-91.6 776.2 -183.2 719.2 -283.4 684.2C-383.6 649.2 -492.6 636.1 -579.4 579.4C-666.3 522.8 -731.1 422.7 -769.7 318.8C-808.3 215 -820.7 107.5 -833.1 0L0 0Z" fill="#ddf1e6"></path><path d="M0 694.3C-76.3 646.8 -152.6 599.4 -236.2 570.2C-319.7 541 -410.5 530 -482.9 482.9C-555.2 435.7 -609.3 352.2 -641.4 265.7C-673.6 179.2 -683.9 89.6 -694.3 0L0 0Z" fill="#c7e8d5"></path><path d="M0 555.4C-61.1 517.5 -122.1 479.5 -188.9 456.1C-255.8 432.8 -328.4 424 -386.3 386.3C-444.2 348.5 -487.4 281.8 -513.1 212.6C-538.9 143.3 -547.2 71.7 -555.4 0L0 0Z" fill="#b0dec5"></path><path d="M0 416.6C-45.8 388.1 -91.6 359.6 -141.7 342.1C-191.8 324.6 -246.3 318 -289.7 289.7C-333.1 261.4 -365.6 211.3 -384.9 159.4C-404.2 107.5 -410.4 53.8 -416.6 0L0 0Z" fill="#99d5b5"></path><path d="M0 277.7C-30.5 258.7 -61.1 239.7 -94.5 228.1C-127.9 216.4 -164.2 212 -193.1 193.1C-222.1 174.3 -243.7 140.9 -256.6 106.3C-269.4 71.7 -273.6 35.8 -277.7 0L0 0Z" fill="#81cba5"></path><path d="M0 138.9C-15.3 129.4 -30.5 119.9 -47.2 114C-63.9 108.2 -82.1 106 -96.6 96.6C-111 87.1 -121.9 70.4 -128.3 53.1C-134.7 35.8 -136.8 17.9 -138.9 0L0 0Z" fill="#74c69d"></path></g><g transform="translate(0, 1080)"><path d="M0 -972C110.3 -904.4 220.7 -836.8 324.5 -783.4C428.4 -730.1 525.7 -691 628.6 -628.6C731.5 -566.2 839.9 -480.6 898 -372C956.2 -263.3 964.1 -131.7 972 0L0 0Z" fill="#f4faf7"></path><path d="M0 -833.1C94.6 -775.2 189.1 -717.3 278.2 -671.5C367.2 -625.8 450.6 -592.3 538.8 -538.8C627 -485.4 719.9 -412 769.7 -318.8C819.6 -225.7 826.4 -112.9 833.1 0L0 0Z" fill="#ddf1e6"></path><path d="M0 -694.3C78.8 -646 157.6 -597.7 231.8 -559.6C306 -521.5 375.5 -493.6 449 -449C522.5 -404.5 599.9 -343.3 641.4 -265.7C683 -188.1 688.6 -94 694.3 0L0 0Z" fill="#c7e8d5"></path><path d="M0 -555.4C63 -516.8 126.1 -478.2 185.4 -447.7C244.8 -417.2 300.4 -394.9 359.2 -359.2C418 -323.6 479.9 -274.6 513.1 -212.6C546.4 -150.5 550.9 -75.2 555.4 0L0 0Z" fill="#b0dec5"></path><path d="M0 -416.6C47.3 -387.6 94.6 -358.6 139.1 -335.8C183.6 -312.9 225.3 -296.1 269.4 -269.4C313.5 -242.7 359.9 -206 384.9 -159.4C409.8 -112.9 413.2 -56.4 416.6 0L0 0Z" fill="#99d5b5"></path><path d="M0 -277.7C31.5 -258.4 63 -239.1 92.7 -223.8C122.4 -208.6 150.2 -197.4 179.6 -179.6C209 -161.8 240 -137.3 256.6 -106.3C273.2 -75.2 275.5 -37.6 277.7 0L0 0Z" fill="#81cba5"></path><path d="M0 -138.9C15.8 -129.2 31.5 -119.5 46.4 -111.9C61.2 -104.3 75.1 -98.7 89.8 -89.8C104.5 -80.9 120 -68.7 128.3 -53.1C136.6 -37.6 137.7 -18.8 138.9 0L0 0Z" fill="#74c69d"></path></g></svg>