<svg id="visual" viewBox="0 0 1920 1080" width="1920" height="1080" xmlns="http://www.w3.org/2000/svg" xmlns:xlink="http://www.w3.org/1999/xlink" version="1.1"><path d="M0 766L45.7 757.3C91.3 748.7 182.7 731.3 274.2 738.8C365.7 746.3 457.3 778.7 548.8 776C640.3 773.3 731.7 735.7 823 714.2C914.3 692.7 1005.7 687.3 1097 694.7C1188.3 702 1279.7 722 1371.2 754.8C1462.7 787.7 1554.3 833.3 1645.8 827.3C1737.3 821.3 1828.7 763.7 1874.3 734.8L1920 706L1920 1081L1874.3 1081C1828.7 1081 1737.3 1081 1645.8 1081C1554.3 1081 1462.7 1081 1371.2 1081C1279.7 1081 1188.3 1081 1097 1081C1005.7 1081 914.3 1081 823 1081C731.7 1081 640.3 1081 548.8 1081C457.3 1081 365.7 1081 274.2 1081C182.7 1081 91.3 1081 45.7 1081L0 1081Z" fill="#74C69D" stroke-linecap="round" stroke-linejoin="miter"></path></svg>